<svg version="1" xmlns="http://www.w3.org/2000/svg" width="346.667" height="346.667" viewBox="0 0 260.000000 260.000000"><path d="M72.5 62.4c-19 3.7-31 12.8-35.1 26.5-2.4 8.1-1.6 21 1.9 27.7 5.5 10.8 12 15.8 32.5 24.8 8.2 3.6 14.9 7.3 17.6 9.7 14 12.3 3.5 25.1-19.3 23.6-10.6-.7-19.3-3.6-27.7-9.2l-6.4-4.3V190.9l3.1 1.6c5.7 3 18.4 5.6 29.9 6.2 27.8 1.4 47.8-7.1 55.3-23.5 1.8-3.9 2.2-6.5 2.2-15.7 0-10-.2-11.5-2.8-16.7-1.7-3.4-5-7.7-8.4-10.8-5.3-4.9-8.6-6.7-34.1-18.7C59 102.8 64.5 85 90 85c7.5 0 19.8 2.8 25.9 5.9 2.2 1.2 4.3 2.1 4.6 2.1.3 0 .4-6.2.3-13.7l-.3-13.7-7-1.8c-9.4-2.5-31.6-3.2-41-1.4zM149 130v67h30v-53h44v-24h-44V87h48V63h-78v67z"/></svg>